<svg xmlns="http://www.w3.org/2000/svg" xmlns:xlink="http://www.w3.org/1999/xlink" width="250" zoomAndPan="magnify" viewBox="0 0 187.5 187.499992" height="250" preserveAspectRatio="xMidYMid meet" version="1.0"><defs><g/><clipPath id="e17631efe1"><path d="M 50 42.539062 L 61 42.539062 L 61 45 L 50 45 Z M 50 42.539062 " clip-rule="nonzero"/></clipPath><clipPath id="f4cf3151db"><path d="M 38 42.539062 L 50 42.539062 L 50 44 L 38 44 Z M 38 42.539062 " clip-rule="nonzero"/></clipPath><clipPath id="3fac08da9d"><path d="M 92 72 L 93.75 72 L 93.75 74 L 92 74 Z M 92 72 " clip-rule="nonzero"/></clipPath><clipPath id="4068a57499"><path d="M 91 74 L 93.75 74 L 93.75 80 L 91 80 Z M 91 74 " clip-rule="nonzero"/></clipPath><clipPath id="7c29c03eb4"><path d="M 8 112 L 16 112 L 16 118.289062 L 8 118.289062 Z M 8 112 " clip-rule="nonzero"/></clipPath><clipPath id="f35aff08a9"><path d="M 92 72 L 93.75 72 L 93.75 78 L 92 78 Z M 92 72 " clip-rule="nonzero"/></clipPath><clipPath id="a7572b1f81"><path d="M 92 72 L 93.75 72 L 93.75 75 L 92 75 Z M 92 72 " clip-rule="nonzero"/></clipPath></defs><path fill="#ffffff" d="M 27.566406 47.53125 C 27.648438 47.265625 27.769531 47.097656 27.929688 47.023438 L 30.0625 46.097656 C 32.070312 45.375 34.769531 44.476562 36.824219 43.902344 L 37.832031 43.671875 C 37.660156 43.738281 37.53125 43.90625 37.449219 44.179688 C 35.910156 44.714844 33.863281 45.441406 32.363281 46.074219 C 30.914062 46.476562 28.984375 47.027344 27.566406 47.53125 " fill-opacity="1" fill-rule="nonzero"/><path fill="#ffffff" d="M 17.566406 53.746094 C 17.625 53.546875 17.710938 53.40625 17.816406 53.320312 L 17.851562 53.292969 C 21.890625 50.285156 21.96875 50.226562 24.238281 48.929688 L 26.476562 47.726562 C 26.324219 47.804688 26.207031 47.96875 26.128906 48.226562 C 24.738281 49.109375 22.894531 50.300781 21.566406 51.273438 C 20.347656 51.980469 18.726562 52.945312 17.566406 53.746094 " fill-opacity="1" fill-rule="nonzero"/><path fill="#ffffff" d="M 91.96875 70.371094 L 92.007812 70.398438 L 92.945312 72.644531 L 91.96875 70.371094 " fill-opacity="1" fill-rule="nonzero"/><path fill="#ffffff" d="M 88.925781 65.085938 C 88.941406 65.035156 88.964844 65.003906 88.996094 64.992188 C 89.792969 66.332031 90.839844 68.128906 91.554688 69.511719 L 92.945312 72.644531 L 91.5 69.585938 C 90.75 68.222656 89.738281 66.410156 88.925781 65.085938 " fill-opacity="1" fill-rule="nonzero"/><path fill="#ffffff" d="M 81.46875 56.203125 C 81.503906 56.089844 81.558594 56.019531 81.628906 55.992188 C 82.707031 57.0625 84.136719 58.503906 85.15625 59.636719 C 86.070312 60.835938 87.28125 62.441406 88.136719 63.683594 C 88.101562 63.699219 88.070312 63.734375 88.054688 63.792969 C 87.136719 62.621094 85.902344 61.070312 84.914062 59.960938 C 83.898438 58.816406 82.535156 57.300781 81.46875 56.203125 " fill-opacity="1" fill-rule="nonzero"/><path fill="#ffffff" d="M 72.277344 49.445312 C 72.328125 49.277344 72.410156 49.171875 72.515625 49.132812 C 73.816406 49.910156 75.546875 50.964844 76.804688 51.820312 C 77.929688 52.738281 79.429688 53.976562 80.507812 54.953125 C 80.433594 54.984375 80.375 55.058594 80.339844 55.179688 C 79.175781 54.308594 77.613281 53.160156 76.394531 52.367188 C 75.171875 51.46875 73.539062 50.285156 72.277344 49.445312 " fill-opacity="1" fill-rule="nonzero"/><path fill="#ffffff" d="M 61.820312 45.011719 C 61.886719 44.792969 61.988281 44.660156 62.121094 44.605469 C 63.582031 45.070312 65.53125 45.703125 66.960938 46.253906 C 68.246094 46.871094 69.953125 47.703125 71.199219 48.390625 C 71.089844 48.433594 71.003906 48.542969 70.949219 48.71875 C 69.601562 48.171875 67.792969 47.449219 66.410156 46.992188 C 65.042969 46.371094 63.214844 45.558594 61.820312 45.011719 " fill-opacity="1" fill-rule="nonzero"/><g clip-path="url(#e17631efe1)"><path fill="#ffffff" d="M 50.566406 43.085938 C 50.644531 42.832031 50.761719 42.675781 50.917969 42.617188 C 52.433594 42.734375 54.457031 42.90625 55.960938 43.117188 L 56.167969 43.148438 C 57.527344 43.433594 59.335938 43.824219 60.671875 44.191406 C 60.535156 44.246094 60.429688 44.382812 60.363281 44.605469 C 58.886719 44.394531 56.917969 44.132812 55.429688 44.027344 C 53.976562 43.714844 52.035156 43.308594 50.566406 43.085938 " fill-opacity="1" fill-rule="nonzero"/></g><g clip-path="url(#f4cf3151db)"><path fill="#ffffff" d="M 38.984375 43.863281 C 39.070312 43.589844 39.195312 43.421875 39.367188 43.355469 L 41.363281 43.011719 C 42.523438 42.890625 44.070312 42.683594 45.234375 42.605469 L 46.660156 42.535156 L 49.394531 42.554688 C 49.234375 42.613281 49.117188 42.773438 49.039062 43.027344 C 47.5 43.179688 45.449219 43.402344 43.925781 43.65625 C 42.441406 43.683594 40.464844 43.738281 38.984375 43.863281 " fill-opacity="1" fill-rule="nonzero"/></g><path fill="#ffffff" d="M 9.625 61.929688 C 9.664062 61.8125 9.710938 61.714844 9.765625 61.636719 C 10.535156 60.699219 11.535156 59.421875 12.347656 58.515625 C 13.601562 57.226562 15.292969 55.527344 16.625 54.316406 C 16.527344 54.40625 16.449219 54.539062 16.390625 54.730469 C 15.261719 55.875 13.769531 57.414062 12.714844 58.625 C 11.761719 59.589844 10.503906 60.894531 9.625 61.929688 " fill-opacity="1" fill-rule="nonzero"/><path fill="#ffffff" d="M 91.921875 70.523438 C 91.917969 70.488281 91.917969 70.460938 91.917969 70.4375 L 92.945312 72.644531 L 91.921875 70.523438 " fill-opacity="1" fill-rule="nonzero"/><path fill="#ffffff" d="M 85.523438 61.222656 C 85.503906 61.027344 85.496094 60.867188 85.5 60.738281 C 86.445312 61.875 87.695312 63.402344 88.5625 64.597656 C 89.375 65.917969 90.449219 67.683594 91.195312 69.042969 C 91.195312 69.078125 91.199219 69.125 91.203125 69.179688 C 90.449219 67.976562 89.433594 66.375 88.597656 65.226562 C 87.691406 64.011719 86.109375 62.617188 85.523438 61.222656 " fill-opacity="1" fill-rule="nonzero"/><path fill="#ffffff" d="M 77.15625 53.890625 C 77.117188 53.550781 77.101562 53.269531 77.113281 53.046875 C 78.292969 53.867188 79.863281 54.980469 80.988281 55.878906 C 82.054688 56.976562 83.472656 58.449219 84.488281 59.597656 C 84.484375 59.738281 84.492188 59.917969 84.515625 60.128906 C 83.503906 59.246094 82.136719 58.074219 81.058594 57.265625 C 79.902344 56.238281 77.894531 55.246094 77.15625 53.890625 " fill-opacity="1" fill-rule="nonzero"/><path fill="#ffffff" d="M 67.28125 48.699219 C 67.226562 48.238281 67.207031 47.855469 67.222656 47.546875 C 68.578125 48.035156 70.382812 48.707031 71.703125 49.289062 C 72.96875 50.136719 74.648438 51.28125 75.875 52.183594 C 75.863281 52.421875 75.878906 52.71875 75.921875 53.074219 C 74.699219 52.519531 73.066406 51.796875 71.808594 51.34375 C 70.460938 50.53125 68.660156 49.457031 67.28125 48.699219 " fill-opacity="1" fill-rule="nonzero"/><path fill="#ffffff" d="M 56.371094 45.828125 C 56.308594 45.269531 56.285156 44.804688 56.300781 44.429688 C 57.769531 44.574219 59.726562 44.777344 61.179688 45.019531 C 62.582031 45.589844 64.449219 46.355469 65.820312 46.992188 C 65.808594 47.308594 65.828125 47.707031 65.882812 48.179688 C 64.515625 47.976562 62.691406 47.722656 61.316406 47.621094 C 59.839844 47.0625 57.871094 46.324219 56.371094 45.828125 " fill-opacity="1" fill-rule="nonzero"/><path fill="#ffffff" d="M 44.894531 45.453125 C 44.824219 44.824219 44.796875 44.304688 44.816406 43.882812 C 46.332031 43.664062 48.363281 43.382812 49.890625 43.265625 C 51.367188 43.519531 53.335938 43.871094 54.796875 44.207031 C 54.78125 44.589844 54.804688 45.0625 54.871094 45.632812 C 53.417969 45.785156 51.484375 46.011719 50.046875 46.277344 C 48.503906 46 46.449219 45.644531 44.894531 45.453125 " fill-opacity="1" fill-rule="nonzero"/><path fill="#ffffff" d="M 33.324219 47.742188 C 33.246094 47.082031 33.21875 46.535156 33.238281 46.09375 C 34.742188 45.496094 36.757812 44.710938 38.300781 44.214844 C 39.789062 44.121094 41.78125 44.011719 43.273438 44.015625 C 43.257812 44.4375 43.28125 44.964844 43.355469 45.597656 C 41.875 46.121094 39.910156 46.84375 38.46875 47.464844 C 36.921875 47.511719 34.863281 47.59375 33.324219 47.742188 " fill-opacity="1" fill-rule="nonzero"/><path fill="#ffffff" d="M 22.410156 52.71875 C 22.335938 52.066406 22.308594 51.523438 22.328125 51.089844 C 23.683594 50.144531 25.503906 48.894531 26.917969 48.039062 C 28.347656 47.574219 30.261719 46.964844 31.722656 46.605469 C 31.703125 47.042969 31.730469 47.59375 31.804688 48.253906 C 30.371094 49.148438 28.464844 50.359375 27.089844 51.34375 C 25.675781 51.71875 23.792969 52.242188 22.410156 52.71875 " fill-opacity="1" fill-rule="nonzero"/><path fill="#ffffff" d="M 13.390625 59.78125 C 13.320312 59.175781 13.296875 58.671875 13.3125 58.265625 C 14.402344 57.070312 15.867188 55.488281 17.027344 54.363281 C 18.203125 53.601562 19.78125 52.597656 21.011719 51.925781 C 20.996094 52.359375 21.019531 52.898438 21.09375 53.546875 C 19.898438 54.714844 18.316406 56.285156 17.1875 57.519531 C 16.03125 58.164062 14.492188 59.042969 13.390625 59.78125 " fill-opacity="1" fill-rule="nonzero"/><path fill="#ffffff" d="M 6.53125 68.46875 C 6.472656 67.941406 6.449219 67.5 6.464844 67.148438 C 7.261719 65.773438 8.335938 63.949219 9.210938 62.621094 C 10.101562 61.617188 11.308594 60.289062 12.277344 59.355469 C 12.261719 59.757812 12.285156 60.253906 12.351562 60.851562 C 11.429688 62.214844 10.207031 64.042969 9.355469 65.449219 C 8.480469 66.328125 7.328125 67.515625 6.53125 68.46875 " fill-opacity="1" fill-rule="nonzero"/><path fill="#ffffff" d="M 2.023438 78.328125 C 1.972656 77.90625 1.957031 77.558594 1.96875 77.277344 C 2.449219 75.789062 3.101562 73.808594 3.660156 72.347656 C 4.25 71.15625 5.054688 69.574219 5.730469 68.429688 C 5.714844 68.773438 5.734375 69.203125 5.792969 69.714844 C 5.164062 71.199219 4.339844 73.1875 3.78125 74.699219 C 3.222656 75.769531 2.492188 77.210938 2.023438 78.328125 " fill-opacity="1" fill-rule="nonzero"/><path fill="#ffffff" d="M 0.0546875 88.921875 C 0.0234375 88.632812 0.0078125 88.390625 0.015625 88.199219 L 0.046875 87.695312 L 0.25 85.40625 L 0.667969 82.507812 C 0.921875 81.359375 1.242188 79.824219 1.558594 78.691406 C 1.546875 78.960938 1.566406 79.296875 1.609375 79.699219 C 1.300781 81.234375 0.898438 83.285156 0.660156 84.832031 C 0.445312 86.054688 0.179688 87.6875 0.0546875 88.921875 " fill-opacity="1" fill-rule="nonzero"/><path fill="#ffffff" d="M 89.066406 66.304688 C 89.0625 66.28125 89.054688 66.253906 89.050781 66.230469 C 89.015625 66.074219 88.984375 65.933594 88.964844 65.808594 C 89.753906 66.972656 90.796875 68.539062 91.507812 69.757812 L 92.945312 72.644531 L 91.589844 70.152344 C 90.851562 68.988281 89.628906 67.566406 89.066406 66.304688 " fill-opacity="1" fill-rule="nonzero"/><path fill="#ffffff" d="M 81.789062 59.003906 C 81.773438 58.945312 81.761719 58.886719 81.75 58.828125 C 81.667969 58.472656 81.601562 58.148438 81.550781 57.859375 C 82.59375 58.6875 83.972656 59.808594 84.949219 60.710938 C 85.910156 61.878906 87.183594 63.4375 88.097656 64.644531 C 88.121094 64.792969 88.15625 64.957031 88.199219 65.140625 C 88.203125 65.167969 88.210938 65.199219 88.21875 65.230469 C 87.371094 64.367188 86.230469 63.226562 85.3125 62.445312 C 84.265625 61.398438 82.527344 60.28125 81.789062 59.003906 " fill-opacity="1" fill-rule="nonzero"/><path fill="#ffffff" d="M 72.757812 53.640625 C 72.734375 53.550781 72.714844 53.464844 72.695312 53.375 C 72.574219 52.84375 72.476562 52.359375 72.398438 51.929688 C 73.632812 52.40625 75.269531 53.0625 76.457031 53.640625 C 77.660156 54.617188 79.261719 55.929688 80.425781 56.953125 C 80.480469 57.261719 80.550781 57.605469 80.636719 57.988281 C 80.652344 58.050781 80.664062 58.113281 80.679688 58.175781 C 79.613281 57.660156 78.179688 56.988281 77.066406 56.570312 C 75.78125 55.679688 73.652344 54.917969 72.757812 53.640625 " fill-opacity="1" fill-rule="nonzero"/><path fill="#ffffff" d="M 62.429688 50.355469 C 62.402344 50.242188 62.378906 50.128906 62.351562 50.019531 C 62.199219 49.339844 62.074219 48.722656 61.976562 48.171875 C 63.335938 48.296875 65.148438 48.476562 66.496094 48.707031 C 67.878906 49.46875 69.722656 50.488281 71.078125 51.300781 C 71.160156 51.75 71.261719 52.25 71.386719 52.808594 C 71.40625 52.898438 71.429688 52.988281 71.449219 53.082031 C 70.214844 52.917969 68.5625 52.71875 67.320312 52.667969 C 65.859375 51.957031 63.910156 51.019531 62.429688 50.355469 " fill-opacity="1" fill-rule="nonzero"/><path fill="#ffffff" d="M 51.277344 49.292969 C 51.246094 49.160156 51.214844 49.03125 51.1875 48.902344 C 51.007812 48.113281 50.863281 47.398438 50.75 46.757812 C 52.179688 46.523438 54.089844 46.222656 55.53125 46.09375 C 57.039062 46.597656 59.042969 47.277344 60.523438 47.847656 C 60.621094 48.410156 60.75 49.042969 60.910156 49.738281 C 60.933594 49.851562 60.960938 49.96875 60.988281 50.082031 C 59.644531 50.28125 57.851562 50.558594 56.523438 50.859375 C 54.953125 50.367188 52.859375 49.726562 51.277344 49.292969 " fill-opacity="1" fill-rule="nonzero"/><path fill="#ffffff" d="M 39.753906 50.59375 C 39.722656 50.453125 39.6875 50.308594 39.65625 50.171875 C 39.464844 49.316406 39.304688 48.539062 39.183594 47.847656 C 40.625 47.246094 42.558594 46.460938 44.039062 45.960938 C 45.597656 46.171875 47.675781 46.464844 49.222656 46.757812 C 49.335938 47.40625 49.484375 48.128906 49.667969 48.929688 C 49.695312 49.0625 49.726562 49.191406 49.757812 49.324219 C 48.359375 49.878906 46.503906 50.632812 45.144531 51.277344 C 43.53125 51.046875 41.375 50.75 39.753906 50.59375 " fill-opacity="1" fill-rule="nonzero"/><path fill="#ffffff" d="M 28.351562 54.390625 C 28.316406 54.246094 28.285156 54.101562 28.253906 53.960938 C 28.054688 53.085938 27.894531 52.296875 27.769531 51.589844 C 29.164062 50.628906 31.03125 49.363281 32.480469 48.488281 C 34.027344 48.363281 36.09375 48.214844 37.648438 48.1875 C 37.769531 48.886719 37.929688 49.664062 38.125 50.527344 C 38.15625 50.667969 38.1875 50.808594 38.222656 50.953125 C 36.828125 51.855469 34.980469 53.074219 33.636719 54.050781 C 32.050781 54.125 29.933594 54.230469 28.351562 54.390625 " fill-opacity="1" fill-rule="nonzero"/><path fill="#ffffff" d="M 18.316406 60.320312 C 18.285156 60.179688 18.253906 60.042969 18.222656 59.910156 C 18.03125 59.070312 17.878906 58.3125 17.757812 57.636719 C 18.914062 56.417969 20.460938 54.800781 21.683594 53.648438 C 23.066406 53.199219 24.917969 52.625 26.332031 52.277344 C 26.453125 52.980469 26.613281 53.769531 26.8125 54.640625 C 26.84375 54.78125 26.878906 54.925781 26.910156 55.070312 C 25.664062 56.265625 24.007812 57.867188 22.820312 59.121094 C 21.460938 59.453125 19.652344 59.902344 18.316406 60.320312 " fill-opacity="1" fill-rule="nonzero"/><path fill="#ffffff" d="M 10.300781 67.847656 C 10.273438 67.722656 10.246094 67.601562 10.21875 67.476562 C 10.046875 66.722656 9.910156 66.042969 9.800781 65.433594 C 10.683594 64.035156 11.871094 62.175781 12.824219 60.820312 C 13.929688 60.117188 15.421875 59.191406 16.582031 58.582031 C 16.699219 59.25 16.851562 60 17.039062 60.828125 C 17.070312 60.964844 17.101562 61.097656 17.132812 61.238281 C 16.136719 62.617188 14.816406 64.464844 13.878906 65.890625 C 12.789062 66.445312 11.339844 67.203125 10.300781 67.847656 " fill-opacity="1" fill-rule="nonzero"/><path fill="#ffffff" d="M 4.503906 76.5625 C 4.480469 76.460938 4.457031 76.355469 4.433594 76.253906 C 4.292969 75.625 4.175781 75.058594 4.085938 74.546875 C 4.675781 73.042969 5.472656 71.035156 6.132812 69.558594 C 6.9375 68.636719 8.027344 67.421875 8.910156 66.578125 C 9.015625 67.175781 9.148438 67.84375 9.316406 68.582031 C 9.34375 68.703125 9.371094 68.824219 9.402344 68.945312 C 8.675781 70.433594 7.714844 72.425781 7.046875 73.941406 C 6.257812 74.699219 5.214844 75.730469 4.503906 76.5625 " fill-opacity="1" fill-rule="nonzero"/><path fill="#ffffff" d="M 1.125 86.054688 C 1.105469 85.976562 1.089844 85.898438 1.070312 85.824219 C 0.964844 85.351562 0.878906 84.929688 0.8125 84.546875 C 1.085938 83.003906 1.460938 80.945312 1.808594 79.417969 C 2.285156 78.328125 2.9375 76.878906 3.507812 75.832031 C 3.59375 76.328125 3.707031 76.878906 3.84375 77.488281 C 3.867188 77.585938 3.890625 77.6875 3.914062 77.789062 C 3.476562 79.308594 2.902344 81.339844 2.527344 82.875 C 2.074219 83.8125 1.480469 85.074219 1.125 86.054688 " fill-opacity="1" fill-rule="nonzero"/><path fill="#ffffff" d="M 0.359375 95.910156 C 0.347656 95.863281 0.335938 95.816406 0.324219 95.769531 C 0.261719 95.488281 0.210938 95.230469 0.167969 95.003906 C 0.101562 93.492188 0.0273438 91.472656 0.0351562 89.960938 C 0.164062 88.742188 0.351562 87.121094 0.570312 85.917969 C 0.632812 86.28125 0.714844 86.683594 0.816406 87.128906 C 0.832031 87.203125 0.851562 87.273438 0.867188 87.347656 C 0.742188 88.832031 0.582031 90.8125 0.523438 92.296875 C 0.4375 93.378906 0.347656 94.824219 0.359375 95.910156 " fill-opacity="1" fill-rule="nonzero"/><path fill="#ffffff" d="M 92.050781 71.066406 C 92.03125 71 92.011719 70.9375 91.996094 70.875 L 92.945312 72.644531 L 92.050781 71.066406 " fill-opacity="1" fill-rule="nonzero"/><path fill="#ffffff" d="M 86.25 64.320312 C 86.136719 63.9375 86.035156 63.578125 85.945312 63.238281 C 86.816406 64.042969 87.964844 65.136719 88.761719 66.015625 C 89.550781 67.128906 90.589844 68.617188 91.324219 69.761719 C 91.351562 69.863281 91.382812 69.964844 91.414062 70.078125 C 90.765625 69.257812 89.886719 68.171875 89.15625 67.421875 C 88.296875 66.480469 86.898438 65.417969 86.25 64.320312 " fill-opacity="1" fill-rule="nonzero"/><path fill="#ffffff" d="M 78.417969 59.292969 C 78.222656 58.628906 78.046875 57.996094 77.890625 57.402344 C 78.964844 57.847656 80.394531 58.457031 81.421875 59 C 82.5 59.992188 83.9375 61.324219 84.980469 62.355469 C 85.082031 62.730469 85.191406 63.132812 85.316406 63.550781 C 84.425781 63.078125 83.226562 62.464844 82.289062 62.097656 C 81.136719 61.246094 79.253906 60.457031 78.417969 59.292969 " fill-opacity="1" fill-rule="nonzero"/><path fill="#ffffff" d="M 69.007812 56.078125 C 68.738281 55.171875 68.496094 54.308594 68.28125 53.5 C 69.503906 53.585938 71.132812 53.710938 72.34375 53.90625 C 73.65625 54.753906 75.40625 55.886719 76.695312 56.773438 C 76.859375 57.394531 77.042969 58.058594 77.25 58.757812 C 76.167969 58.640625 74.71875 58.496094 73.628906 58.488281 C 72.246094 57.753906 70.402344 56.78125 69.007812 56.078125 " fill-opacity="1" fill-rule="nonzero"/><path fill="#ffffff" d="M 58.464844 54.777344 C 58.140625 53.675781 57.847656 52.632812 57.585938 51.652344 C 58.902344 51.382812 60.660156 51.039062 61.992188 50.871094 C 63.476562 51.535156 65.453125 52.425781 66.917969 53.132812 C 67.136719 53.96875 67.386719 54.859375 67.664062 55.796875 C 66.441406 56.023438 64.816406 56.351562 63.621094 56.675781 C 62.078125 56.09375 60.019531 55.324219 58.464844 54.777344 " fill-opacity="1" fill-rule="nonzero"/><path fill="#ffffff" d="M 35.789062 58.292969 C 35.410156 56.996094 35.0625 55.761719 34.757812 54.605469 C 36.109375 53.65625 37.917969 52.398438 39.316406 51.523438 C 40.945312 51.699219 43.113281 51.945312 44.734375 52.191406 C 45.027344 53.300781 45.359375 54.484375 45.726562 55.734375 C 44.398438 56.625 42.632812 57.824219 41.351562 58.777344 C 39.683594 58.609375 37.460938 58.394531 35.789062 58.292969 " fill-opacity="1" fill-rule="nonzero"/><path fill="#ffffff" d="M 24.851562 63.15625 C 24.472656 61.871094 24.128906 60.652344 23.828125 59.507812 C 25.042969 58.273438 26.675781 56.636719 27.949219 55.464844 C 29.535156 55.335938 31.652344 55.179688 33.242188 55.132812 C 33.546875 56.292969 33.894531 57.527344 34.277344 58.828125 C 32.980469 60.011719 31.261719 61.597656 30.015625 62.835938 C 28.464844 62.910156 26.394531 63.015625 24.851562 63.15625 " fill-opacity="1" fill-rule="nonzero"/><path fill="#ffffff" d="M 15.664062 69.488281 C 15.308594 68.296875 14.992188 67.160156 14.710938 66.097656 C 15.679688 64.691406 16.984375 62.820312 18.011719 61.457031 C 19.351562 61.078125 21.144531 60.589844 22.503906 60.292969 C 22.804688 61.429688 23.144531 62.644531 23.523438 63.917969 C 22.445312 65.28125 21.011719 67.101562 19.984375 68.5 C 18.683594 68.769531 16.945312 69.140625 15.664062 69.488281 " fill-opacity="1" fill-rule="nonzero"/><path fill="#ffffff" d="M 8.507812 76.910156 C 8.199219 75.871094 7.921875 74.886719 7.679688 73.960938 C 8.382812 72.457031 9.332031 70.457031 10.09375 68.980469 C 11.144531 68.378906 12.558594 67.589844 13.652344 67.078125 C 13.929688 68.125 14.242188 69.242188 14.589844 70.421875 C 13.757812 71.875 12.652344 73.816406 11.863281 75.296875 C 10.84375 75.75 9.484375 76.371094 8.507812 76.910156 " fill-opacity="1" fill-rule="nonzero"/><path fill="#ffffff" d="M 3.59375 85.046875 C 3.351562 84.222656 3.128906 83.4375 2.9375 82.699219 C 3.351562 81.171875 3.917969 79.140625 4.394531 77.632812 C 5.125 76.839844 6.109375 75.792969 6.914062 75.078125 C 7.152344 75.980469 7.421875 76.941406 7.722656 77.957031 C 7.148438 79.425781 6.390625 81.390625 5.863281 82.878906 C 5.160156 83.5 4.222656 84.347656 3.59375 85.046875 " fill-opacity="1" fill-rule="nonzero"/><path fill="#ffffff" d="M 1.132812 93.539062 C 0.964844 92.972656 0.816406 92.433594 0.683594 91.925781 C 0.789062 90.449219 0.945312 88.476562 1.113281 87.003906 C 1.492188 86.058594 2.015625 84.804688 2.488281 83.90625 C 2.675781 84.613281 2.886719 85.367188 3.121094 86.164062 C 2.828125 87.578125 2.445312 89.46875 2.203125 90.890625 C 1.847656 91.671875 1.390625 92.722656 1.132812 93.539062 " fill-opacity="1" fill-rule="nonzero"/><path fill="#ffffff" d="M 1.335938 102.023438 C 1.257812 101.75 1.183594 101.492188 1.121094 101.246094 C 0.894531 99.886719 0.605469 98.066406 0.453125 96.695312 C 0.457031 95.636719 0.476562 94.222656 0.582031 93.167969 C 0.707031 93.640625 0.847656 94.144531 1.003906 94.675781 C 1.007812 95.96875 1.027344 97.699219 1.097656 98.992188 C 1.136719 99.902344 1.207031 101.121094 1.335938 102.023438 " fill-opacity="1" fill-rule="nonzero"/><path fill="#ffffff" d="M 1.699219 103.640625 L 1.488281 102.863281 L 1.390625 102.46875 C 1.445312 102.675781 1.507812 102.894531 1.574219 103.125 L 1.957031 104.53125 C 1.878906 104.265625 1.773438 103.90625 1.699219 103.640625 " fill-opacity="1" fill-rule="nonzero"/><path fill="#ffffff" d="M 89.769531 68.691406 C 89.679688 68.425781 89.597656 68.167969 89.519531 67.921875 C 90.199219 68.679688 91.097656 69.714844 91.695312 70.539062 L 92.945312 72.644531 L 91.898438 71.15625 C 91.273438 70.40625 90.265625 69.535156 89.769531 68.691406 " fill-opacity="1" fill-rule="nonzero"/><path fill="#ffffff" d="M 83.398438 64.488281 C 83.195312 63.875 83.003906 63.28125 82.824219 62.710938 C 83.730469 63.101562 84.929688 63.640625 85.78125 64.132812 C 86.683594 65.023438 87.882812 66.210938 88.75 67.136719 C 88.84375 67.425781 88.941406 67.730469 89.046875 68.046875 C 88.347656 67.644531 87.40625 67.125 86.65625 66.832031 C 85.683594 66.121094 84.121094 65.449219 83.398438 64.488281 " fill-opacity="1" fill-rule="nonzero"/><path fill="#ffffff" d="M 75.167969 61.847656 C 74.859375 60.929688 74.574219 60.042969 74.308594 59.191406 C 75.378906 59.226562 76.808594 59.285156 77.867188 59.429688 C 79.050781 60.234375 80.625 61.3125 81.789062 62.144531 C 81.980469 62.753906 82.1875 63.390625 82.40625 64.046875 C 81.488281 63.992188 80.261719 63.945312 79.347656 64.003906 C 78.09375 63.351562 76.089844 62.914062 75.167969 61.847656 " fill-opacity="1" fill-rule="nonzero"/><path fill="#ffffff" d="M 65.503906 60.820312 C 65.113281 59.652344 64.75 58.519531 64.410156 57.433594 C 65.597656 57.128906 67.1875 56.730469 68.398438 56.523438 C 69.800781 57.214844 71.671875 58.136719 73.0625 58.855469 C 73.339844 59.742188 73.640625 60.664062 73.957031 61.617188 C 72.878906 61.910156 71.441406 62.316406 70.394531 62.695312 C 68.929688 62.125 66.976562 61.371094 65.503906 60.820312 " fill-opacity="1" fill-rule="nonzero"/><path fill="#ffffff" d="M 54.847656 61.449219 C 54.394531 60.089844 53.96875 58.773438 53.574219 57.515625 C 54.835938 56.882812 56.523438 56.050781 57.824219 55.5 C 59.382812 56.039062 61.464844 56.765625 63.015625 57.335938 C 63.363281 58.449219 63.738281 59.609375 64.140625 60.808594 C 62.949219 61.421875 61.375 62.25 60.226562 62.929688 C 58.613281 62.476562 56.464844 61.875 54.847656 61.449219 " fill-opacity="1" fill-rule="nonzero"/><path fill="#ffffff" d="M 43.625 63.769531 C 43.132812 62.296875 42.671875 60.871094 42.246094 59.507812 C 43.535156 58.570312 45.261719 57.328125 46.59375 56.453125 C 48.246094 56.800781 50.449219 57.273438 52.089844 57.667969 C 52.488281 58.945312 52.921875 60.277344 53.378906 61.65625 C 52.132812 62.5625 50.476562 63.78125 49.269531 64.738281 C 47.578125 64.433594 45.324219 64.035156 43.625 63.769531 " fill-opacity="1" fill-rule="nonzero"/><path fill="#ffffff" d="M 32.296875 67.820312 C 31.796875 66.320312 31.328125 64.867188 30.890625 63.476562 C 32.152344 62.257812 33.84375 60.636719 35.152344 59.46875 C 36.828125 59.582031 39.058594 59.742188 40.730469 59.917969 C 41.160156 61.292969 41.621094 62.726562 42.117188 64.207031 C 40.855469 65.375 39.179688 66.9375 37.957031 68.140625 C 36.261719 68.027344 33.996094 67.886719 32.296875 67.820312 " fill-opacity="1" fill-rule="nonzero"/><path fill="#ffffff" d="M 13.707031 79.4375 C 13.273438 78.140625 12.871094 76.886719 12.496094 75.6875 C 13.308594 74.21875 14.398438 72.265625 15.257812 70.828125 C 16.539062 70.507812 18.246094 70.097656 19.542969 69.855469 C 19.957031 71.175781 20.402344 72.554688 20.875 73.980469 C 19.945312 75.394531 18.710938 77.289062 17.8125 78.726562 C 16.578125 78.917969 14.929688 79.175781 13.707031 79.4375 " fill-opacity="1" fill-rule="nonzero"/><path fill="#ffffff" d="M 7.347656 86.234375 C 6.984375 85.152344 6.648438 84.109375 6.335938 83.105469 C 6.890625 81.628906 7.640625 79.667969 8.242188 78.210938 C 9.21875 77.707031 10.53125 77.050781 11.550781 76.636719 C 11.917969 77.8125 12.316406 79.042969 12.742188 80.3125 C 12.042969 81.726562 11.113281 83.613281 10.449219 85.039062 C 9.507812 85.371094 8.253906 85.820312 7.347656 86.234375 " fill-opacity="1" fill-rule="nonzero"/><path fill="#ffffff" d="M 3.246094 93.277344 C 2.976562 92.46875 2.726562 91.691406 2.492188 90.941406 C 2.765625 89.527344 3.144531 87.648438 3.46875 86.246094 C 4.109375 85.582031 4.976562 84.710938 5.6875 84.128906 C 5.992188 85.101562 6.316406 86.113281 6.667969 87.164062 C 6.21875 88.5 5.625 90.285156 5.214844 91.636719 C 4.601562 92.101562 3.789062 92.734375 3.246094 93.277344 " fill-opacity="1" fill-rule="nonzero"/><path fill="#ffffff" d="M 1.632812 100.253906 C 1.472656 99.769531 1.320312 99.300781 1.179688 98.847656 C 1.152344 97.566406 1.125 95.855469 1.160156 94.574219 C 1.425781 93.789062 1.796875 92.738281 2.167969 91.992188 C 2.390625 92.703125 2.628906 93.445312 2.886719 94.214844 C 2.707031 95.414062 2.472656 97.015625 2.339844 98.21875 C 2.089844 98.816406 1.777344 99.625 1.632812 100.253906 " fill-opacity="1" fill-rule="nonzero"/><path fill="#ffffff" d="M 2.453125 106.097656 C 2.355469 105.804688 2.230469 105.414062 2.136719 105.121094 L 2.058594 104.875 L 1.523438 102.839844 C 1.394531 101.957031 1.238281 100.777344 1.207031 99.886719 C 1.335938 100.292969 1.472656 100.71875 1.617188 101.160156 C 1.726562 102.164062 1.878906 103.503906 2.058594 104.496094 C 2.171875 104.976562 2.296875 105.628906 2.453125 106.097656 " fill-opacity="1" fill-rule="nonzero"/><path fill="#ffffff" d="M 92.316406 71.871094 C 92.285156 71.785156 92.257812 71.699219 92.230469 71.621094 L 92.945312 72.644531 L 92.316406 71.871094 " fill-opacity="1" fill-rule="nonzero"/><path fill="#ffffff" d="M 87.769531 68.882812 C 87.59375 68.398438 87.425781 67.925781 87.265625 67.464844 C 87.96875 67.78125 88.90625 68.222656 89.550781 68.644531 C 90.210938 69.335938 91.085938 70.261719 91.707031 70.984375 C 91.753906 71.117188 91.800781 71.253906 91.851562 71.394531 C 91.378906 71.085938 90.734375 70.683594 90.203125 70.488281 C 89.480469 70 88.316406 69.566406 87.769531 68.882812 " fill-opacity="1" fill-rule="nonzero"/><path fill="#ffffff" d="M 81.070312 67.246094 C 80.765625 66.402344 80.472656 65.578125 80.191406 64.773438 C 81.082031 64.738281 82.273438 64.707031 83.160156 64.785156 C 84.148438 65.449219 85.464844 66.335938 86.441406 67.023438 C 86.617188 67.53125 86.804688 68.054688 86.996094 68.585938 C 86.273438 68.625 85.308594 68.695312 84.597656 68.839844 C 83.539062 68.359375 82.128906 67.722656 81.070312 67.246094 " fill-opacity="1" fill-rule="nonzero"/><path fill="#ffffff" d="M 72.625 66.941406 C 72.210938 65.789062 71.808594 64.664062 71.429688 63.566406 C 72.464844 63.203125 73.851562 62.730469 74.914062 62.460938 C 76.179688 63.078125 77.863281 63.898438 79.117188 64.527344 C 79.410156 65.375 79.71875 66.242188 80.039062 67.128906 C 79.128906 67.5 77.917969 68.011719 77.042969 68.460938 C 75.71875 68.003906 73.953125 67.394531 72.625 66.941406 " fill-opacity="1" fill-rule="nonzero"/><path fill="#ffffff" d="M 52.164062 70.246094 C 51.597656 68.683594 51.054688 67.152344 50.535156 65.660156 C 51.738281 64.714844 53.351562 63.464844 54.597656 62.574219 C 56.21875 62.992188 58.382812 63.558594 60 64.007812 C 60.46875 65.363281 60.964844 66.757812 61.480469 68.179688 C 60.339844 69.121094 58.824219 70.382812 57.71875 71.363281 C 56.054688 71.023438 53.832031 70.570312 52.164062 70.246094 " fill-opacity="1" fill-rule="nonzero"/><path fill="#ffffff" d="M 29.96875 78.511719 C 29.378906 76.886719 28.8125 75.292969 28.277344 73.738281 C 29.402344 72.375 30.914062 70.558594 32.085938 69.230469 C 33.785156 69.308594 36.050781 69.425781 37.75 69.554688 C 38.292969 71.125 38.867188 72.738281 39.464844 74.386719 C 38.269531 75.726562 36.675781 77.515625 35.511719 78.878906 C 33.847656 78.757812 31.632812 78.605469 29.96875 78.511719 " fill-opacity="1" fill-rule="nonzero"/><path fill="#ffffff" d="M 20.425781 83.777344 C 19.875 82.261719 19.351562 80.78125 18.847656 79.335938 C 19.769531 77.910156 21.003906 76.011719 21.960938 74.605469 C 23.449219 74.539062 25.4375 74.457031 26.925781 74.441406 C 27.460938 75.984375 28.023438 77.566406 28.609375 79.183594 C 27.589844 80.570312 26.230469 82.421875 25.234375 83.824219 C 23.792969 83.796875 21.867188 83.761719 20.425781 83.777344 " fill-opacity="1" fill-rule="nonzero"/><path fill="#ffffff" d="M 12.648438 89.335938 C 12.171875 88.019531 11.714844 86.730469 11.277344 85.472656 C 11.972656 84.058594 12.910156 82.171875 13.636719 80.773438 C 14.863281 80.554688 16.496094 80.277344 17.730469 80.125 C 18.226562 81.550781 18.746094 83.011719 19.285156 84.503906 C 18.464844 85.859375 17.371094 87.671875 16.570312 89.042969 C 15.394531 89.109375 13.820312 89.207031 12.648438 89.335938 " fill-opacity="1" fill-rule="nonzero"/><path fill="#ffffff" d="M 3.402344 100.339844 C 3.140625 99.617188 2.890625 98.914062 2.652344 98.226562 C 2.828125 97.035156 3.078125 95.449219 3.296875 94.265625 C 3.855469 93.773438 4.621094 93.128906 5.242188 92.71875 C 5.578125 93.675781 5.925781 94.664062 6.292969 95.671875 C 5.929688 96.773438 5.445312 98.246094 5.101562 99.351562 C 4.574219 99.621094 3.871094 99.984375 3.402344 100.339844 " fill-opacity="1" fill-rule="nonzero"/><path fill="#ffffff" d="M 2.425781 105.285156 C 2.300781 104.9375 2.179688 104.601562 2.066406 104.269531 C 1.945312 103.285156 1.800781 101.972656 1.742188 100.984375 C 1.90625 100.390625 2.148438 99.601562 2.421875 99.050781 C 2.644531 99.695312 2.878906 100.355469 3.121094 101.027344 C 3.015625 101.914062 2.875 103.097656 2.808594 103.988281 C 2.652344 104.363281 2.46875 104.882812 2.425781 105.285156 " fill-opacity="1" fill-rule="nonzero"/><path fill="#ffffff" d="M 2.800781 107.097656 C 2.71875 106.867188 2.609375 106.554688 2.53125 106.324219 L 2.191406 105.03125 C 2.289062 105.3125 2.390625 105.601562 2.5 105.894531 C 2.621094 106.34375 2.75 106.953125 2.910156 107.394531 L 2.800781 107.097656 " fill-opacity="1" fill-rule="nonzero"/><path fill="#ffffff" d="M 90.867188 71.722656 C 90.746094 71.414062 90.632812 71.113281 90.519531 70.8125 C 91.003906 71.027344 91.652344 71.34375 92.078125 71.664062 L 92.945312 72.644531 L 92.355469 72.394531 C 91.90625 72.195312 91.203125 72.078125 90.867188 71.722656 " fill-opacity="1" fill-rule="nonzero"/><path fill="#ffffff" d="M 85.921875 71.449219 C 85.648438 70.738281 85.382812 70.039062 85.125 69.347656 C 85.8125 69.21875 86.738281 69.0625 87.441406 69.042969 C 88.191406 69.488281 89.1875 70.085938 89.933594 70.542969 C 90.0625 70.898438 90.199219 71.257812 90.339844 71.621094 C 89.824219 71.773438 89.140625 72.003906 88.65625 72.242188 C 87.835938 72.007812 86.738281 71.695312 85.921875 71.449219 " fill-opacity="1" fill-rule="nonzero"/><path fill="#ffffff" d="M 78.945312 72.269531 C 78.535156 71.210938 78.132812 70.160156 77.75 69.128906 C 78.613281 68.6875 79.773438 68.109375 80.671875 67.746094 C 81.746094 68.199219 83.175781 68.796875 84.25 69.25 C 84.523438 69.988281 84.8125 70.738281 85.105469 71.496094 C 84.378906 71.972656 83.417969 72.628906 82.730469 73.160156 C 81.59375 72.902344 80.078125 72.546875 78.945312 72.269531 " fill-opacity="1" fill-rule="nonzero"/><path fill="#ffffff" d="M 70.320312 74.109375 C 69.796875 72.757812 69.289062 71.417969 68.796875 70.101562 C 69.800781 69.375 71.140625 68.414062 72.183594 67.746094 C 73.523438 68.179688 75.304688 68.757812 76.640625 69.1875 C 77.042969 70.265625 77.457031 71.355469 77.886719 72.457031 C 76.996094 73.222656 75.816406 74.25 74.960938 75.050781 C 73.570312 74.773438 71.710938 74.402344 70.320312 74.109375 " fill-opacity="1" fill-rule="nonzero"/><path fill="#ffffff" d="M 60.4375 76.882812 C 59.832031 75.3125 59.238281 73.757812 58.667969 72.226562 C 59.769531 71.25 61.246094 69.949219 62.382812 69.011719 C 63.921875 69.402344 65.972656 69.925781 67.511719 70.320312 C 68.015625 71.667969 68.535156 73.042969 69.074219 74.425781 C 68.058594 75.429688 66.710938 76.773438 65.726562 77.808594 C 64.140625 77.53125 62.023438 77.164062 60.4375 76.882812 " fill-opacity="1" fill-rule="nonzero"/><path fill="#ffffff" d="M 38.476562 84.875 C 37.804688 83.140625 37.152344 81.421875 36.519531 79.730469 C 37.699219 78.375 39.273438 76.574219 40.476562 75.242188 C 42.21875 75.449219 44.546875 75.730469 46.285156 75.964844 C 46.90625 77.632812 47.554688 79.328125 48.214844 81.039062 C 47.058594 82.375 45.519531 84.160156 44.378906 85.507812 C 42.609375 85.3125 40.25 85.058594 38.476562 84.875 " fill-opacity="1" fill-rule="nonzero"/><path fill="#ffffff" d="M 19.039062 94.148438 C 18.457031 92.652344 17.894531 91.171875 17.351562 89.710938 C 18.171875 88.351562 19.269531 86.542969 20.109375 85.195312 C 21.542969 85.207031 23.453125 85.230469 24.882812 85.28125 C 25.484375 86.886719 26.101562 88.515625 26.738281 90.160156 C 25.816406 91.476562 24.582031 93.230469 23.664062 94.550781 C 22.277344 94.421875 20.425781 94.25 19.039062 94.148438 " fill-opacity="1" fill-rule="nonzero"/><path fill="#ffffff" d="M 11.796875 98.515625 C 11.3125 97.265625 10.84375 96.027344 10.386719 94.808594 C 10.996094 93.554688 11.808594 91.882812 12.433594 90.632812 C 13.597656 90.542969 15.148438 90.433594 16.316406 90.394531 C 16.847656 91.824219 17.402344 93.277344 17.96875 94.746094 C 17.230469 95.9375 16.246094 97.527344 15.507812 98.71875 C 14.394531 98.644531 12.910156 98.550781 11.796875 98.515625 " fill-opacity="1" fill-rule="nonzero"/><path fill="#ffffff" d="M 6.570312 102.449219 C 6.210938 101.519531 5.859375 100.59375 5.519531 99.683594 C 5.890625 98.589844 6.390625 97.136719 6.78125 96.050781 C 7.625 95.851562 8.757812 95.605469 9.617188 95.476562 C 10.054688 96.65625 10.511719 97.855469 10.980469 99.066406 C 10.449219 100.074219 9.738281 101.421875 9.207031 102.429688 C 8.414062 102.417969 7.359375 102.410156 6.570312 102.449219 " fill-opacity="1" fill-rule="nonzero"/><path fill="#ffffff" d="M 3.632812 105.773438 C 3.417969 105.214844 3.207031 104.65625 3 104.109375 C 3.105469 103.238281 3.257812 102.074219 3.398438 101.203125 C 3.871094 100.902344 4.523438 100.519531 5.042969 100.300781 C 5.367188 101.167969 5.699219 102.042969 6.042969 102.929688 C 5.738281 103.707031 5.335938 104.742188 5.039062 105.519531 C 4.613281 105.570312 4.042969 105.644531 3.632812 105.773438 " fill-opacity="1" fill-rule="nonzero"/><path fill="#ffffff" d="M 3.214844 108.207031 L 3.082031 107.863281 L 2.972656 107.5625 C 2.832031 107.050781 2.632812 106.375 2.539062 105.851562 C 2.59375 105.484375 2.6875 104.984375 2.855469 104.652344 C 3.042969 105.148438 3.234375 105.652344 3.429688 106.160156 C 3.375 106.65625 3.300781 107.316406 3.285156 107.8125 C 3.242188 107.925781 3.183594 108.09375 3.214844 108.207031 " fill-opacity="1" fill-rule="nonzero"/><path fill="#ffffff" d="M 92.675781 72.796875 C 92.640625 72.703125 92.601562 72.613281 92.566406 72.523438 L 92.945312 72.644531 L 92.675781 72.796875 " fill-opacity="1" fill-rule="nonzero"/><path fill="#ffffff" d="M 89.8125 74.152344 C 89.597656 73.632812 89.390625 73.117188 89.1875 72.601562 C 89.644531 72.375 90.261719 72.070312 90.753906 71.929688 C 91.207031 72.097656 91.804688 72.316406 92.261719 72.46875 C 92.320312 72.617188 92.382812 72.765625 92.441406 72.917969 C 92.167969 73.214844 91.8125 73.621094 91.570312 73.945312 C 91.042969 74.03125 90.339844 74.128906 89.8125 74.152344 " fill-opacity="1" fill-rule="nonzero"/><path fill="#ffffff" d="M 77.484375 79.484375 C 76.980469 78.25 76.484375 77.019531 75.996094 75.796875 C 76.835938 74.992188 77.957031 73.925781 78.832031 73.160156 C 79.972656 73.40625 81.492188 73.730469 82.636719 73.953125 C 83.011719 74.898438 83.394531 75.847656 83.785156 76.792969 C 83.085938 77.664062 82.15625 78.828125 81.480469 79.71875 C 80.28125 79.660156 78.683594 79.578125 77.484375 79.484375 " fill-opacity="1" fill-rule="nonzero"/><path fill="#ffffff" d="M 68.746094 83.15625 C 68.132812 81.664062 67.53125 80.167969 66.941406 78.683594 C 67.914062 77.652344 69.214844 76.277344 70.214844 75.273438 C 71.613281 75.535156 73.472656 75.886719 74.875 76.132812 C 75.375 77.398438 75.886719 78.667969 76.410156 79.9375 C 75.550781 81.023438 74.410156 82.476562 73.570312 83.578125 C 72.121094 83.464844 70.191406 83.300781 68.746094 83.15625 " fill-opacity="1" fill-rule="nonzero"/><path fill="#ffffff" d="M 26.816406 100.273438 C 26.152344 98.65625 25.496094 97.035156 24.855469 95.425781 C 25.792969 94.109375 27.039062 92.359375 27.984375 91.050781 C 29.59375 91.21875 31.738281 91.449219 33.347656 91.632812 C 34.03125 93.351562 34.730469 95.082031 35.441406 96.816406 C 34.425781 98.109375 33.070312 99.832031 32.054688 101.125 C 30.480469 100.871094 28.386719 100.527344 26.816406 100.273438 " fill-opacity="1" fill-rule="nonzero"/><path fill="#ffffff" d="M 11.316406 106.359375 C 10.855469 105.238281 10.402344 104.117188 9.960938 103.003906 C 10.519531 102.003906 11.265625 100.675781 11.824219 99.675781 C 12.933594 99.75 14.414062 99.859375 15.523438 99.96875 C 16.070312 101.335938 16.621094 102.710938 17.1875 104.085938 C 16.492188 105.019531 15.566406 106.261719 14.855469 107.179688 C 13.792969 106.929688 12.378906 106.597656 11.316406 106.359375 " fill-opacity="1" fill-rule="nonzero"/><path fill="#ffffff" d="M 6.441406 108.1875 C 6.125 107.417969 5.8125 106.648438 5.507812 105.882812 C 5.84375 105.121094 6.285156 104.101562 6.621094 103.339844 C 7.40625 103.351562 8.457031 103.375 9.242188 103.425781 C 9.667969 104.5 10.105469 105.578125 10.546875 106.65625 C 10.050781 107.335938 9.386719 108.242188 8.867188 108.902344 C 8.140625 108.683594 7.171875 108.390625 6.441406 108.1875 " fill-opacity="1" fill-rule="nonzero"/><path fill="#ffffff" d="M 3.882812 109.050781 C 3.734375 108.683594 3.582031 108.3125 3.4375 107.945312 C 3.507812 107.460938 3.609375 106.820312 3.703125 106.34375 C 4.117188 106.277344 4.671875 106.210938 5.089844 106.207031 C 5.375 106.921875 5.667969 107.640625 5.964844 108.363281 C 5.691406 108.746094 5.332031 109.261719 5.03125 109.628906 C 4.6875 109.457031 4.144531 109.335938 3.882812 109.050781 " fill-opacity="1" fill-rule="nonzero"/><path fill="#ffffff" d="M 3.632812 109.242188 C 3.445312 108.792969 3.445312 108.792969 3.355469 108.566406 L 3.28125 108.375 C 3.296875 108.3125 3.3125 108.226562 3.328125 108.164062 L 3.355469 108.148438 C 3.480469 108.460938 3.605469 108.773438 3.734375 109.085938 C 3.710938 109.148438 3.707031 109.253906 3.648438 109.289062 L 3.632812 109.242188 " fill-opacity="1" fill-rule="nonzero"/><path fill="#ffffff" d="M 92.199219 74.972656 C 92.066406 74.664062 91.933594 74.351562 91.800781 74.039062 C 92.027344 73.707031 92.324219 73.257812 92.578125 72.945312 L 92.945312 72.644531 L 92.898438 73.691406 C 92.726562 74.097656 92.476562 74.632812 92.199219 74.972656 " fill-opacity="1" fill-rule="nonzero"/><path fill="#ffffff" d="M 88.984375 78.910156 C 88.675781 78.199219 88.371094 77.484375 88.070312 76.765625 C 88.527344 76.125 89.144531 75.277344 89.632812 74.660156 C 90.179688 74.589844 90.910156 74.496094 91.445312 74.351562 C 91.601562 74.722656 91.757812 75.089844 91.914062 75.453125 C 91.648438 76.195312 91.292969 77.183594 91.027344 77.921875 C 90.429688 78.25 89.621094 78.667969 88.984375 78.910156 " fill-opacity="1" fill-rule="nonzero"/><path fill="#ffffff" d="M 83.53125 83.441406 C 83.070312 82.378906 82.609375 81.308594 82.160156 80.230469 C 82.816406 79.332031 83.699219 78.136719 84.386719 77.257812 C 85.289062 77.253906 86.5 77.246094 87.402344 77.1875 C 87.726562 77.957031 88.050781 78.722656 88.382812 79.480469 C 87.886719 80.46875 87.234375 81.789062 86.75 82.78125 C 85.789062 83.003906 84.503906 83.289062 83.53125 83.441406 " fill-opacity="1" fill-rule="nonzero"/><path fill="#ffffff" d="M 35.214844 107.0625 C 34.492188 105.394531 33.773438 103.714844 33.0625 102.027344 C 34.089844 100.738281 35.457031 99.019531 36.480469 97.726562 C 38.214844 97.960938 40.527344 98.269531 42.261719 98.488281 C 43 100.246094 43.75 101.996094 44.503906 103.730469 C 43.421875 105.027344 41.980469 106.753906 40.890625 108.042969 C 39.1875 107.753906 36.914062 107.371094 35.214844 107.0625 " fill-opacity="1" fill-rule="nonzero"/><path fill="#ffffff" d="M 25.511719 109.917969 C 24.859375 108.417969 24.214844 106.90625 23.574219 105.386719 C 24.464844 104.261719 25.644531 102.757812 26.519531 101.625 C 28.082031 101.894531 30.167969 102.25 31.730469 102.519531 C 32.433594 104.191406 33.144531 105.851562 33.859375 107.5 C 32.890625 108.609375 31.59375 110.082031 30.601562 111.171875 C 29.074219 110.800781 27.035156 110.300781 25.511719 109.917969 " fill-opacity="1" fill-rule="nonzero"/><path fill="#ffffff" d="M 17.199219 111.675781 C 16.65625 110.421875 16.117188 109.160156 15.582031 107.894531 C 16.308594 106.980469 17.269531 105.765625 17.976562 104.835938 C 19.3125 105.113281 21.089844 105.488281 22.421875 105.773438 C 23.046875 107.261719 23.683594 108.746094 24.320312 110.214844 C 23.488281 111.089844 22.371094 112.25 21.507812 113.09375 C 20.214844 112.667969 18.488281 112.105469 17.199219 111.675781 " fill-opacity="1" fill-rule="nonzero"/><path fill="#ffffff" d="M 10.605469 112.28125 C 10.199219 111.347656 9.796875 110.402344 9.398438 109.457031 C 9.9375 108.804688 10.644531 107.929688 11.15625 107.257812 C 12.203125 107.523438 13.605469 107.878906 14.652344 108.15625 C 15.167969 109.386719 15.691406 110.609375 16.21875 111.820312 C 15.546875 112.421875 14.648438 113.21875 13.9375 113.773438 C 12.9375 113.328125 11.375 113.0625 10.605469 112.28125 " fill-opacity="1" fill-rule="nonzero"/><path fill="#ffffff" d="M 6.0625 111.691406 C 5.816406 111.128906 5.574219 110.558594 5.335938 109.992188 C 5.652344 109.636719 6.066406 109.160156 6.355469 108.78125 C 7.070312 109.019531 8.019531 109.339844 8.730469 109.589844 C 9.109375 110.488281 9.492188 111.386719 9.878906 112.273438 C 9.398438 112.570312 8.753906 112.960938 8.238281 113.183594 C 7.578125 112.742188 6.558594 112.304688 6.0625 111.691406 " fill-opacity="1" fill-rule="nonzero"/><path fill="#ffffff" d="M 3.972656 110.046875 L 3.925781 109.9375 C 3.859375 109.785156 3.773438 109.585938 3.710938 109.433594 C 3.769531 109.410156 3.84375 109.351562 3.882812 109.296875 C 4.207031 109.507812 4.640625 109.78125 4.972656 109.980469 C 5.1875 110.496094 5.410156 111.007812 5.628906 111.519531 C 5.355469 111.492188 4.976562 111.4375 4.738281 111.296875 C 4.5 110.929688 4.15625 110.449219 3.972656 110.046875 " fill-opacity="1" fill-rule="nonzero"/><g clip-path="url(#3fac08da9d)"><path fill="#ffffff" d="M 93.078125 73.722656 C 93.039062 73.636719 93 73.550781 92.960938 73.460938 L 92.945312 72.644531 L 93.078125 73.722656 " fill-opacity="1" fill-rule="nonzero"/></g><g clip-path="url(#4068a57499)"><path fill="#ffffff" d="M 92.105469 79.421875 C 91.882812 78.9375 91.65625 78.445312 91.433594 77.945312 C 91.664062 77.1875 91.972656 76.179688 92.199219 75.417969 C 92.449219 75.019531 92.773438 74.464844 92.910156 74.011719 C 92.976562 74.15625 93.039062 74.300781 93.105469 74.441406 C 93.109375 75.308594 93.105469 76.472656 93.070312 77.339844 C 92.820312 77.980469 92.46875 78.835938 92.105469 79.421875 " fill-opacity="1" fill-rule="nonzero"/></g><g clip-path="url(#7c29c03eb4)"><path fill="#ffffff" d="M 9.863281 116.046875 C 9.527344 115.324219 9.195312 114.589844 8.859375 113.84375 C 9.398438 113.609375 10.105469 113.277344 10.605469 112.972656 C 11.601562 113.453125 12.929688 114.09375 13.929688 114.566406 C 14.394531 115.609375 14.863281 116.636719 15.332031 117.644531 C 14.644531 117.867188 13.726562 118.15625 13.015625 118.277344 C 12.0625 117.617188 10.59375 116.945312 9.863281 116.046875 " fill-opacity="1" fill-rule="nonzero"/></g><path fill="#ffffff" d="M 5.527344 112.824219 C 5.367188 112.476562 5.207031 112.125 5.046875 111.765625 C 5.335938 111.886719 5.746094 112.027344 6.058594 112.03125 C 6.703125 112.523438 7.5625 113.175781 8.222656 113.644531 C 8.535156 114.339844 8.847656 115.03125 9.15625 115.703125 C 8.644531 115.582031 7.957031 115.394531 7.480469 115.164062 C 6.878906 114.472656 6 113.605469 5.527344 112.824219 " fill-opacity="1" fill-rule="nonzero"/><path fill="#ffffff" d="M 4.253906 110.683594 C 4.195312 110.546875 4.113281 110.367188 4.054688 110.230469 C 4.25 110.578125 4.492188 111.058594 4.71875 111.386719 C 4.855469 111.691406 4.992188 111.992188 5.128906 112.285156 L 4.523438 111.261719 C 4.441406 111.085938 4.332031 110.855469 4.253906 110.683594 " fill-opacity="1" fill-rule="nonzero"/><g clip-path="url(#f35aff08a9)"><path fill="#ffffff" d="M 93.597656 77.992188 C 93.472656 77.742188 93.34375 77.472656 93.207031 77.191406 L 93.207031 77.183594 C 93.199219 76.296875 93.1875 75.109375 93.136719 74.222656 L 92.945312 72.644531 L 93.449219 74.863281 C 93.53125 75.800781 93.628906 77.050781 93.597656 77.992188 " fill-opacity="1" fill-rule="nonzero"/></g><g clip-path="url(#a7572b1f81)"><path fill="#ffffff" d="M 93.457031 74.480469 C 93.425781 74.421875 93.390625 74.359375 93.359375 74.292969 L 92.945312 72.644531 L 93.457031 74.480469 " fill-opacity="1" fill-rule="nonzero"/><path fill="#ffffff" d="M 93.71875 74.898438 C 93.703125 74.875 93.679688 74.847656 93.65625 74.8125 L 92.945312 72.644531 L 93.71875 74.898438 " fill-opacity="1" fill-rule="nonzero"/></g><g fill="#ffffff" fill-opacity="1"><g transform="translate(72.720642, 108.570675)"><g><path d="M 0.242188 -17.050781 L 5.371094 0 L 11.199219 0 L 16.308594 -17.050781 L 12.667969 -17.050781 L 8.285156 -2.871094 L 3.878906 -17.050781 Z M 0.242188 -17.050781 "/></g></g></g><g fill="#ffffff" fill-opacity="1"><g transform="translate(93.871626, 108.570675)"><g><path d="M 5.371094 -17.050781 L 0.242188 0 L 3.902344 0 L 5.019531 -3.59375 L 11.550781 -3.59375 L 12.667969 0 L 16.308594 0 L 11.199219 -17.050781 Z M 5.984375 -6.75 L 8.285156 -14.179688 L 10.585938 -6.75 Z M 5.984375 -6.75 "/></g></g></g><g fill="#ffffff" fill-opacity="1"><g transform="translate(115.022609, 108.570675)"><g><path d="M 4.867188 -13.894531 L 9.621094 -13.894531 C 10.476562 -13.894531 11.199219 -13.195312 11.199219 -12.339844 L 11.199219 -4.691406 C 11.199219 -3.835938 10.476562 -3.15625 9.621094 -3.15625 L 4.867188 -3.15625 Z M 1.335938 -17.050781 L 1.335938 0 L 11.089844 0 C 13.085938 0 14.730469 -1.664062 14.730469 -3.660156 L 14.730469 -13.390625 C 14.730469 -15.386719 13.085938 -17.050781 11.089844 -17.050781 Z M 1.335938 -17.050781 "/></g></g></g><g fill="#ffffff" fill-opacity="1"><g transform="translate(135.691401, 108.570675)"><g><path d="M 5.371094 -17.050781 L 0.242188 0 L 3.902344 0 L 5.019531 -3.59375 L 11.550781 -3.59375 L 12.667969 0 L 16.308594 0 L 11.199219 -17.050781 Z M 5.984375 -6.75 L 8.285156 -14.179688 L 10.585938 -6.75 Z M 5.984375 -6.75 "/></g></g></g><g fill="#ffffff" fill-opacity="1"><g transform="translate(62.405034, 122.10015)"><g><path d="M 1.125 0 L 1.125 -8.203125 L 2.078125 -8.203125 L 2.078125 0 Z M 1.125 0 "/></g></g></g><g fill="#ffffff" fill-opacity="1"><g transform="translate(68.879759, 122.10015)"><g><path d="M 7.53125 0 L 6.4375 0 L 1.96875 -6.875 L 1.921875 -6.875 C 1.972656 -6.070312 2 -5.332031 2 -4.65625 L 2 0 L 1.125 0 L 1.125 -8.203125 L 2.203125 -8.203125 L 6.671875 -1.34375 L 6.71875 -1.34375 C 6.707031 -1.445312 6.6875 -1.769531 6.65625 -2.3125 C 6.632812 -2.863281 6.628906 -3.257812 6.640625 -3.5 L 6.640625 -8.203125 L 7.53125 -8.203125 Z M 7.53125 0 "/></g></g></g><g fill="#ffffff" fill-opacity="1"><g transform="translate(80.808751, 122.10015)"><g><path d="M 7.53125 0 L 6.4375 0 L 1.96875 -6.875 L 1.921875 -6.875 C 1.972656 -6.070312 2 -5.332031 2 -4.65625 L 2 0 L 1.125 0 L 1.125 -8.203125 L 2.203125 -8.203125 L 6.671875 -1.34375 L 6.71875 -1.34375 C 6.707031 -1.445312 6.6875 -1.769531 6.65625 -2.3125 C 6.632812 -2.863281 6.628906 -3.257812 6.640625 -3.5 L 6.640625 -8.203125 L 7.53125 -8.203125 Z M 7.53125 0 "/></g></g></g><g fill="#ffffff" fill-opacity="1"><g transform="translate(92.737743, 122.10015)"><g><path d="M 8.25 -4.109375 C 8.25 -2.796875 7.914062 -1.765625 7.25 -1.015625 C 6.582031 -0.265625 5.660156 0.109375 4.484375 0.109375 C 3.273438 0.109375 2.34375 -0.257812 1.6875 -1 C 1.03125 -1.738281 0.703125 -2.78125 0.703125 -4.125 C 0.703125 -5.457031 1.03125 -6.488281 1.6875 -7.21875 C 2.34375 -7.957031 3.273438 -8.328125 4.484375 -8.328125 C 5.671875 -8.328125 6.59375 -7.953125 7.25 -7.203125 C 7.914062 -6.453125 8.25 -5.421875 8.25 -4.109375 Z M 1.703125 -4.109375 C 1.703125 -2.992188 1.9375 -2.148438 2.40625 -1.578125 C 2.882812 -1.003906 3.578125 -0.71875 4.484375 -0.71875 C 5.390625 -0.71875 6.070312 -1.003906 6.53125 -1.578125 C 7 -2.148438 7.234375 -2.992188 7.234375 -4.109375 C 7.234375 -5.210938 7 -6.046875 6.53125 -6.609375 C 6.070312 -7.179688 5.390625 -7.46875 4.484375 -7.46875 C 3.578125 -7.46875 2.882812 -7.179688 2.40625 -6.609375 C 1.9375 -6.035156 1.703125 -5.203125 1.703125 -4.109375 Z M 1.703125 -4.109375 "/></g></g></g><g fill="#ffffff" fill-opacity="1"><g transform="translate(104.952627, 122.10015)"><g><path d="M 5.8125 -8.203125 L 6.828125 -8.203125 L 3.875 0 L 2.9375 0 L 0 -8.203125 L 1.015625 -8.203125 L 2.890625 -2.890625 C 3.109375 -2.285156 3.28125 -1.691406 3.40625 -1.109375 C 3.539062 -1.722656 3.71875 -2.328125 3.9375 -2.921875 Z M 5.8125 -8.203125 "/></g></g></g><g fill="#ffffff" fill-opacity="1"><g transform="translate(115.059798, 122.10015)"><g><path d="M 6.28125 0 L 5.265625 -2.609375 L 1.96875 -2.609375 L 0.96875 0 L 0 0 L 3.234375 -8.234375 L 4.046875 -8.234375 L 7.265625 0 Z M 4.96875 -3.46875 L 4.015625 -6 C 3.890625 -6.320312 3.757812 -6.71875 3.625 -7.1875 C 3.539062 -6.832031 3.425781 -6.4375 3.28125 -6 L 2.3125 -3.46875 Z M 4.96875 -3.46875 "/></g></g></g><g fill="#ffffff" fill-opacity="1"><g transform="translate(125.598598, 122.10015)"><g><path d="M 3.65625 0 L 2.703125 0 L 2.703125 -7.359375 L 0.09375 -7.359375 L 0.09375 -8.203125 L 6.25 -8.203125 L 6.25 -7.359375 L 3.65625 -7.359375 Z M 3.65625 0 "/></g></g></g><g fill="#ffffff" fill-opacity="1"><g transform="translate(135.223685, 122.10015)"><g><path d="M 1.125 0 L 1.125 -8.203125 L 2.078125 -8.203125 L 2.078125 0 Z M 1.125 0 "/></g></g></g><g fill="#ffffff" fill-opacity="1"><g transform="translate(141.698412, 122.10015)"><g><path d="M 8.25 -4.109375 C 8.25 -2.796875 7.914062 -1.765625 7.25 -1.015625 C 6.582031 -0.265625 5.660156 0.109375 4.484375 0.109375 C 3.273438 0.109375 2.34375 -0.257812 1.6875 -1 C 1.03125 -1.738281 0.703125 -2.78125 0.703125 -4.125 C 0.703125 -5.457031 1.03125 -6.488281 1.6875 -7.21875 C 2.34375 -7.957031 3.273438 -8.328125 4.484375 -8.328125 C 5.671875 -8.328125 6.59375 -7.953125 7.25 -7.203125 C 7.914062 -6.453125 8.25 -5.421875 8.25 -4.109375 Z M 1.703125 -4.109375 C 1.703125 -2.992188 1.9375 -2.148438 2.40625 -1.578125 C 2.882812 -1.003906 3.578125 -0.71875 4.484375 -0.71875 C 5.390625 -0.71875 6.070312 -1.003906 6.53125 -1.578125 C 7 -2.148438 7.234375 -2.992188 7.234375 -4.109375 C 7.234375 -5.210938 7 -6.046875 6.53125 -6.609375 C 6.070312 -7.179688 5.390625 -7.46875 4.484375 -7.46875 C 3.578125 -7.46875 2.882812 -7.179688 2.40625 -6.609375 C 1.9375 -6.035156 1.703125 -5.203125 1.703125 -4.109375 Z M 1.703125 -4.109375 "/></g></g></g><g fill="#ffffff" fill-opacity="1"><g transform="translate(153.913297, 122.10015)"><g><path d="M 7.53125 0 L 6.4375 0 L 1.96875 -6.875 L 1.921875 -6.875 C 1.972656 -6.070312 2 -5.332031 2 -4.65625 L 2 0 L 1.125 0 L 1.125 -8.203125 L 2.203125 -8.203125 L 6.671875 -1.34375 L 6.71875 -1.34375 C 6.707031 -1.445312 6.6875 -1.769531 6.65625 -2.3125 C 6.632812 -2.863281 6.628906 -3.257812 6.640625 -3.5 L 6.640625 -8.203125 L 7.53125 -8.203125 Z M 7.53125 0 "/></g></g></g></svg>